<svg xmlns="http://www.w3.org/2000/svg" xmlns:xlink="http://www.w3.org/1999/xlink" width="1200" zoomAndPan="magnify" viewBox="0 0 900 675.000002" height="900" preserveAspectRatio="xMidYMid meet" version="1.0"><defs><clipPath id="6262b24492"><path d="M 0.664062 0 L 899.332031 0 L 899.332031 674 L 0.664062 674 Z M 0.664062 0 " clip-rule="nonzero"/></clipPath></defs><g clip-path="url(#6262b24492)"><path fill="#ffffff" d="M 0.664062 0 L 899.335938 0 L 899.335938 674 L 0.664062 674 Z M 0.664062 0 " fill-opacity="1" fill-rule="nonzero"/><path fill="#2b2b2b" d="M 0.664062 0 L 899.335938 0 L 899.335938 674 L 0.664062 674 Z M 0.664062 0 " fill-opacity="1" fill-rule="nonzero"/></g><path fill="#6994c6" d="M 138.421875 195.734375 C 139.203125 194.082031 140.019531 192.457031 140.851562 190.84375 C 166.558594 141.800781 207.542969 109.195312 264.523438 120.878906 C 287.425781 125.574219 309.972656 133.585938 333.351562 133.355469 C 374.769531 132.933594 411.160156 107.070312 443.203125 80.890625 C 475.242188 54.710938 508.152344 25.984375 548.804688 18.066406 C 560.511719 15.773438 573 15.390625 584.054688 19.894531 C 595.113281 24.398438 604.375 34.597656 605.132812 46.496094 C 606.511719 68.148438 581.316406 84.476562 582.035156 106.164062 C 582.519531 120.851562 595.816406 132.90625 610.273438 135.59375 C 624.734375 138.28125 639.703125 133.535156 652.5 126.277344 C 688.558594 105.804688 710.644531 68.210938 738.742188 37.785156 C 742.289062 33.945312 746.320312 30.003906 751.476562 29.210938 C 758.578125 28.097656 765.421875 33.703125 767.90625 40.433594 C 770.386719 47.164062 769.480469 54.675781 767.90625 61.6875 C 757.578125 107.902344 722.402344 143.695312 692.191406 180.199219 C 661.980469 216.707031 634.164062 261.925781 642.878906 308.464844 C 651.71875 355.628906 694.625 387.589844 720.933594 427.769531 C 755.1875 480.128906 760.523438 546.871094 751.269531 608.726562 C 749.644531 619.550781 747.433594 630.761719 740.828125 639.511719 C 728.417969 655.96875 704.324219 658.628906 684.15625 654.242188 C 625.847656 641.558594 587.203125 586.269531 533.796875 559.679688 C 497.339844 541.535156 455.371094 537.542969 414.65625 538.953125 C 373.9375 540.359375 333.53125 546.832031 292.8125 548.292969 C 277.882812 548.828125 262.347656 548.5625 248.914062 542.035156 C 234.480469 535.125 224.28125 521.832031 215.515625 508.445312 C 203.382812 489.902344 193.003906 470.425781 184.375 450.015625 C 175.746094 429.605469 169.003906 408.585938 164.152344 386.964844 C 161.835938 376.601562 160.316406 364.519531 167.277344 356.445312 C 175.707031 346.605469 191.179688 348.527344 203.832031 351.328125 L 275.488281 367.027344 C 282.230469 368.511719 289.667969 369.90625 295.746094 366.632812 C 306.046875 361.078125 305.890625 345.902344 301.003906 335.28125 C 291.152344 313.851562 269.21875 300.363281 246.878906 292.6875 C 224.535156 285.007812 200.8125 281.898438 178.523438 274.171875 C 157.347656 266.824219 135.554688 252.546875 131.742188 230.472656 C 129.695312 218.636719 133.253906 206.6875 138.421875 195.734375 Z M 138.421875 195.734375 " fill-opacity="1" fill-rule="nonzero"/></svg>