<svg xmlns="http://www.w3.org/2000/svg" xmlns:xlink="http://www.w3.org/1999/xlink" width="64" zoomAndPan="magnify" viewBox="0 0 48 48" height="64" preserveAspectRatio="xMidYMid meet" version="1.0"><defs><clipPath id="95cd084cbf"><path d="M 17 6.226562 L 31 6.226562 L 31 40.757812 L 17 40.757812 Z M 17 6.226562 " clip-rule="nonzero"/></clipPath><clipPath id="1a38ed431f"><path d="M 3.589844 11 L 19 11 L 19 36 L 3.589844 36 Z M 3.589844 11 " clip-rule="nonzero"/></clipPath><clipPath id="14d4caa993"><path d="M 30 11 L 44.730469 11 L 44.730469 36 L 30 36 Z M 30 11 " clip-rule="nonzero"/></clipPath><clipPath id="68f70214b6"><path d="M 17 6.226562 L 31 6.226562 L 31 40.757812 L 17 40.757812 Z M 17 6.226562 " clip-rule="nonzero"/></clipPath><clipPath id="b812a6227c"><path d="M 3.589844 11 L 19 11 L 19 36 L 3.589844 36 Z M 3.589844 11 " clip-rule="nonzero"/></clipPath><clipPath id="89b7b2df63"><path d="M 30 11 L 44.730469 11 L 44.730469 36 L 30 36 Z M 30 11 " clip-rule="nonzero"/></clipPath></defs><g clip-path="url(#95cd084cbf)"><path fill="#000000" d="M 20.074219 40.78125 C 19.910156 40.78125 19.71875 40.757812 19.550781 40.710938 C 19.027344 40.589844 18.578125 40.210938 18.265625 39.734375 C 17.980469 39.234375 17.910156 38.664062 18.078125 38.140625 L 26.089844 8.011719 C 26.402344 6.894531 27.542969 6.226562 28.683594 6.539062 C 29.207031 6.65625 29.660156 7.011719 29.96875 7.511719 C 30.253906 8.011719 30.324219 8.582031 30.15625 9.105469 L 22.144531 39.1875 C 21.859375 40.164062 21.003906 40.78125 20.074219 40.78125 Z M 20.074219 40.78125 " fill-opacity="1" fill-rule="evenodd"/></g><g clip-path="url(#1a38ed431f)"><path fill="#000000" d="M 15.960938 35.714844 C 15.4375 35.714844 14.867188 35.527344 14.460938 35.097656 L 4.425781 25.085938 C 3.59375 24.277344 3.59375 22.945312 4.425781 22.113281 L 14.4375 12.101562 C 15.269531 11.292969 16.578125 11.292969 17.410156 12.101562 C 18.242188 12.933594 18.242188 14.265625 17.410156 15.074219 L 8.921875 23.613281 L 17.433594 32.125 C 18.265625 32.957031 18.265625 34.265625 17.433594 35.097656 C 17.007812 35.527344 16.484375 35.714844 15.960938 35.714844 Z M 15.960938 35.714844 " fill-opacity="1" fill-rule="evenodd"/></g><g clip-path="url(#14d4caa993)"><path fill="#000000" d="M 32.273438 35.714844 C 31.75 35.714844 31.179688 35.527344 30.777344 35.097656 C 29.96875 34.265625 29.96875 32.957031 30.777344 32.125 L 39.3125 23.613281 L 30.777344 15.074219 C 29.96875 14.265625 29.96875 12.933594 30.777344 12.101562 C 31.179688 11.722656 31.703125 11.484375 32.273438 11.484375 C 32.84375 11.484375 33.367188 11.722656 33.75 12.101562 L 43.761719 22.113281 C 44.164062 22.519531 44.402344 23.042969 44.402344 23.613281 C 44.402344 24.160156 44.164062 24.707031 43.761719 25.085938 L 33.75 35.097656 C 33.367188 35.527344 32.84375 35.714844 32.273438 35.714844 Z M 32.273438 35.714844 " fill-opacity="1" fill-rule="evenodd"/></g><g clip-path="url(#68f70214b6)"><path fill="#000000" d="M 20.074219 40.78125 C 19.910156 40.78125 19.71875 40.757812 19.550781 40.710938 C 19.027344 40.589844 18.578125 40.210938 18.265625 39.734375 C 17.980469 39.234375 17.910156 38.664062 18.078125 38.140625 L 26.089844 8.011719 C 26.402344 6.894531 27.542969 6.226562 28.683594 6.539062 C 29.207031 6.65625 29.660156 7.011719 29.96875 7.511719 C 30.253906 8.011719 30.324219 8.582031 30.15625 9.105469 L 22.144531 39.1875 C 21.859375 40.164062 21.003906 40.78125 20.074219 40.78125 Z M 20.074219 40.78125 " fill-opacity="1" fill-rule="evenodd"/></g><g clip-path="url(#b812a6227c)"><path fill="#000000" d="M 15.960938 35.714844 C 15.4375 35.714844 14.867188 35.527344 14.460938 35.097656 L 4.425781 25.085938 C 3.59375 24.277344 3.59375 22.945312 4.425781 22.113281 L 14.4375 12.101562 C 15.269531 11.292969 16.578125 11.292969 17.410156 12.101562 C 18.242188 12.933594 18.242188 14.265625 17.410156 15.074219 L 8.921875 23.613281 L 17.433594 32.125 C 18.265625 32.957031 18.265625 34.265625 17.433594 35.097656 C 17.007812 35.527344 16.484375 35.714844 15.960938 35.714844 Z M 15.960938 35.714844 " fill-opacity="1" fill-rule="evenodd"/></g><g clip-path="url(#89b7b2df63)"><path fill="#000000" d="M 32.273438 35.714844 C 31.75 35.714844 31.179688 35.527344 30.777344 35.097656 C 29.96875 34.265625 29.96875 32.957031 30.777344 32.125 L 39.3125 23.613281 L 30.777344 15.074219 C 29.96875 14.265625 29.96875 12.933594 30.777344 12.101562 C 31.179688 11.722656 31.703125 11.484375 32.273438 11.484375 C 32.84375 11.484375 33.367188 11.722656 33.75 12.101562 L 43.761719 22.113281 C 44.164062 22.519531 44.402344 23.042969 44.402344 23.613281 C 44.402344 24.160156 44.164062 24.707031 43.761719 25.085938 L 33.75 35.097656 C 33.367188 35.527344 32.84375 35.714844 32.273438 35.714844 Z M 32.273438 35.714844 " fill-opacity="1" fill-rule="evenodd"/></g></svg>