<svg xmlns="http://www.w3.org/2000/svg" xmlns:xlink="http://www.w3.org/1999/xlink" width="250" zoomAndPan="magnify" viewBox="0 0 187.5 52.499999" height="70" preserveAspectRatio="xMidYMid meet" version="1.0"><defs><g/></defs><g fill="#000000" fill-opacity="1"><g transform="translate(3.707162, 39.003535)"><g><path d="M 4.78125 0.15625 C 4.1875 0.15625 3.660156 0.0351562 3.203125 -0.203125 C 2.742188 -0.453125 2.390625 -0.789062 2.140625 -1.21875 C 1.898438 -1.65625 1.78125 -2.144531 1.78125 -2.6875 C 1.78125 -3.226562 1.898438 -3.710938 2.140625 -4.140625 C 2.390625 -4.566406 2.742188 -4.90625 3.203125 -5.15625 C 3.660156 -5.40625 4.1875 -5.53125 4.78125 -5.53125 C 5.394531 -5.53125 5.929688 -5.40625 6.390625 -5.15625 C 6.847656 -4.914062 7.195312 -4.582031 7.4375 -4.15625 C 7.6875 -3.726562 7.8125 -3.242188 7.8125 -2.703125 C 7.8125 -1.867188 7.535156 -1.179688 6.984375 -0.640625 C 6.429688 -0.109375 5.695312 0.15625 4.78125 0.15625 Z M 4.78125 0.15625 "/></g></g></g><g fill="#000000" fill-opacity="1"><g transform="translate(13.295316, 39.003535)"><g><path d="M 10.046875 0 L 5.125 0 L 0.671875 -18.71875 L 5.046875 -18.71875 L 7.796875 -6.0625 L 8.140625 -6.0625 L 11.71875 -18.71875 L 15.78125 -18.71875 L 19.46875 -6.0625 L 19.828125 -6.0625 L 22.46875 -18.71875 L 26.71875 -18.71875 L 22.328125 0 L 17.390625 0 L 13.828125 -12.75 L 13.484375 -12.75 Z M 10.046875 0 "/></g></g></g><g fill="#000000" fill-opacity="1"><g transform="translate(40.668222, 39.003535)"><g><path d="M 18.5 -8.296875 L 6.46875 -8.296875 C 6.601562 -6.671875 7.066406 -5.484375 7.859375 -4.734375 C 8.648438 -3.992188 9.734375 -3.625 11.109375 -3.625 C 12.179688 -3.625 13.050781 -3.828125 13.71875 -4.234375 C 14.382812 -4.640625 14.921875 -5.25 15.328125 -6.0625 L 15.6875 -6.0625 L 18.8125 -4.0625 C 18.195312 -2.75 17.269531 -1.679688 16.03125 -0.859375 C 14.800781 -0.046875 13.160156 0.359375 11.109375 0.359375 C 9.171875 0.359375 7.492188 -0.00390625 6.078125 -0.734375 C 4.671875 -1.472656 3.585938 -2.570312 2.828125 -4.03125 C 2.066406 -5.488281 1.6875 -7.265625 1.6875 -9.359375 C 1.6875 -11.484375 2.085938 -13.273438 2.890625 -14.734375 C 3.691406 -16.191406 4.773438 -17.28125 6.140625 -18 C 7.515625 -18.71875 9.054688 -19.078125 10.765625 -19.078125 C 13.410156 -19.078125 15.4375 -18.375 16.84375 -16.96875 C 18.257812 -15.570312 18.96875 -13.515625 18.96875 -10.796875 C 18.96875 -9.804688 18.929688 -9.039062 18.859375 -8.5 Z M 14.46875 -11.34375 C 14.414062 -12.769531 14.082031 -13.804688 13.46875 -14.453125 C 12.851562 -15.109375 11.953125 -15.4375 10.765625 -15.4375 C 8.390625 -15.4375 6.988281 -14.070312 6.5625 -11.34375 Z M 14.46875 -11.34375 "/></g></g></g><g fill="#000000" fill-opacity="1"><g transform="translate(61.015472, 39.003535)"><g><path d="M 13.09375 0.359375 C 10.695312 0.359375 8.914062 -0.535156 7.75 -2.328125 L 7.40625 -2.25 L 7.40625 0 L 2.703125 0 L 2.703125 -26.25 L 7.40625 -26.25 L 7.40625 -16.515625 L 7.75 -16.453125 C 8.394531 -17.347656 9.15625 -18.007812 10.03125 -18.4375 C 10.914062 -18.863281 11.96875 -19.078125 13.1875 -19.078125 C 14.707031 -19.078125 16.03125 -18.71875 17.15625 -18 C 18.289062 -17.289062 19.175781 -16.207031 19.8125 -14.75 C 20.445312 -13.300781 20.765625 -11.503906 20.765625 -9.359375 C 20.765625 -7.222656 20.4375 -5.425781 19.78125 -3.96875 C 19.125 -2.519531 18.21875 -1.4375 17.0625 -0.71875 C 15.90625 0 14.582031 0.359375 13.09375 0.359375 Z M 11.65625 -3.625 C 13.039062 -3.625 14.09375 -4.085938 14.8125 -5.015625 C 15.539062 -5.941406 15.90625 -7.390625 15.90625 -9.359375 C 15.90625 -11.335938 15.539062 -12.785156 14.8125 -13.703125 C 14.09375 -14.628906 13.039062 -15.09375 11.65625 -15.09375 C 10.332031 -15.09375 9.28125 -14.613281 8.5 -13.65625 C 7.726562 -12.707031 7.34375 -11.273438 7.34375 -9.359375 C 7.34375 -7.429688 7.726562 -5.992188 8.5 -5.046875 C 9.28125 -4.097656 10.332031 -3.625 11.65625 -3.625 Z M 11.65625 -3.625 "/></g></g></g><g fill="#000000" fill-opacity="1"><g transform="translate(83.433084, 39.003535)"><g><path d="M 10.046875 0 L 5.125 0 L 0.671875 -18.71875 L 5.046875 -18.71875 L 7.796875 -6.0625 L 8.140625 -6.0625 L 11.71875 -18.71875 L 15.78125 -18.71875 L 19.46875 -6.0625 L 19.828125 -6.0625 L 22.46875 -18.71875 L 26.71875 -18.71875 L 22.328125 0 L 17.390625 0 L 13.828125 -12.75 L 13.484375 -12.75 Z M 10.046875 0 "/></g></g></g><g fill="#000000" fill-opacity="1"><g transform="translate(110.80599, 39.003535)"><g><path d="M 10.875 0.359375 C 9.039062 0.359375 7.429688 -0.015625 6.046875 -0.765625 C 4.660156 -1.523438 3.585938 -2.628906 2.828125 -4.078125 C 2.066406 -5.535156 1.6875 -7.296875 1.6875 -9.359375 C 1.6875 -11.410156 2.066406 -13.164062 2.828125 -14.625 C 3.585938 -16.09375 4.660156 -17.203125 6.046875 -17.953125 C 7.429688 -18.703125 9.039062 -19.078125 10.875 -19.078125 C 12.707031 -19.078125 14.316406 -18.703125 15.703125 -17.953125 C 17.097656 -17.203125 18.175781 -16.09375 18.9375 -14.625 C 19.707031 -13.164062 20.09375 -11.410156 20.09375 -9.359375 C 20.09375 -7.296875 19.707031 -5.535156 18.9375 -4.078125 C 18.175781 -2.628906 17.097656 -1.523438 15.703125 -0.765625 C 14.316406 -0.015625 12.707031 0.359375 10.875 0.359375 Z M 10.875 -3.625 C 13.789062 -3.625 15.25 -5.535156 15.25 -9.359375 C 15.25 -11.335938 14.875 -12.785156 14.125 -13.703125 C 13.375 -14.628906 12.289062 -15.09375 10.875 -15.09375 C 7.96875 -15.09375 6.515625 -13.179688 6.515625 -9.359375 C 6.515625 -5.535156 7.96875 -3.625 10.875 -3.625 Z M 10.875 -3.625 "/></g></g></g><g fill="#000000" fill-opacity="1"><g transform="translate(132.561765, 39.003535)"><g><path d="M 2.703125 0 L 2.703125 -18.71875 L 7.265625 -18.71875 L 7.265625 -15.9375 L 7.625 -15.875 C 8.070312 -16.914062 8.660156 -17.675781 9.390625 -18.15625 C 10.128906 -18.644531 11.03125 -18.890625 12.09375 -18.890625 C 13.15625 -18.890625 13.960938 -18.707031 14.515625 -18.34375 L 13.71875 -14.296875 L 13.359375 -14.21875 C 13.054688 -14.34375 12.757812 -14.429688 12.46875 -14.484375 C 12.1875 -14.546875 11.84375 -14.578125 11.4375 -14.578125 C 10.125 -14.578125 9.125 -14.113281 8.4375 -13.1875 C 7.75 -12.269531 7.40625 -10.796875 7.40625 -8.765625 L 7.40625 0 Z M 2.703125 0 "/></g></g></g><g fill="#000000" fill-opacity="1"><g transform="translate(147.240974, 39.003535)"><g><path d="M 2.703125 0 L 2.703125 -26.25 L 7.40625 -26.25 L 7.40625 -11.671875 L 7.859375 -11.671875 L 13.28125 -18.71875 L 18.046875 -18.71875 L 18.046875 -18.328125 L 11.671875 -10.125 L 18.765625 -0.421875 L 18.765625 0 L 13.796875 0 L 7.859375 -7.890625 L 7.40625 -7.890625 L 7.40625 0 Z M 2.703125 0 "/></g></g></g><g fill="#000000" fill-opacity="1"><g transform="translate(166.026967, 39.003535)"><g><path d="M 8.765625 0.359375 C 7.484375 0.359375 6.3125 0.207031 5.25 -0.09375 C 4.1875 -0.394531 3.273438 -0.804688 2.515625 -1.328125 C 1.765625 -1.859375 1.207031 -2.460938 0.84375 -3.140625 L 3.46875 -5.953125 L 3.8125 -5.953125 C 4.4375 -5.117188 5.171875 -4.492188 6.015625 -4.078125 C 6.867188 -3.660156 7.796875 -3.453125 8.796875 -3.453125 C 9.710938 -3.453125 10.398438 -3.613281 10.859375 -3.9375 C 11.328125 -4.269531 11.5625 -4.738281 11.5625 -5.34375 C 11.5625 -5.820312 11.394531 -6.222656 11.0625 -6.546875 C 10.726562 -6.867188 10.1875 -7.117188 9.4375 -7.296875 L 6.953125 -7.890625 C 5.097656 -8.335938 3.742188 -9.015625 2.890625 -9.921875 C 2.035156 -10.828125 1.609375 -11.984375 1.609375 -13.390625 C 1.609375 -14.554688 1.90625 -15.566406 2.5 -16.421875 C 3.09375 -17.285156 3.929688 -17.941406 5.015625 -18.390625 C 6.097656 -18.847656 7.359375 -19.078125 8.796875 -19.078125 C 10.484375 -19.078125 11.878906 -18.832031 12.984375 -18.34375 C 14.097656 -17.863281 14.960938 -17.210938 15.578125 -16.390625 L 13.078125 -13.6875 L 12.734375 -13.6875 C 12.210938 -14.269531 11.625 -14.695312 10.96875 -14.96875 C 10.320312 -15.238281 9.597656 -15.375 8.796875 -15.375 C 6.941406 -15.375 6.015625 -14.796875 6.015625 -13.640625 C 6.015625 -13.160156 6.1875 -12.765625 6.53125 -12.453125 C 6.875 -12.148438 7.484375 -11.90625 8.359375 -11.71875 L 10.65625 -11.203125 C 12.5625 -10.796875 13.953125 -10.140625 14.828125 -9.234375 C 15.703125 -8.335938 16.140625 -7.132812 16.140625 -5.625 C 16.140625 -4.4375 15.84375 -3.390625 15.25 -2.484375 C 14.664062 -1.578125 13.816406 -0.875 12.703125 -0.375 C 11.597656 0.113281 10.285156 0.359375 8.765625 0.359375 Z M 8.765625 0.359375 "/></g></g></g></svg>