<svg viewBox="0 0 800 400" xmlns="http://www.w3.org/2000/svg">
  <defs>
    <linearGradient id="headerGrad1" x1="0%" y1="0%" x2="100%" y2="0%">
      <stop offset="0%" style="stop-color:#1E40AF"/>
      <stop offset="100%" style="stop-color:#3B82F6"/>
    </linearGradient>
    <linearGradient id="contentGrad1" x1="0%" y1="0%" x2="0%" y2="100%">
      <stop offset="0%" style="stop-color:#2563EB"/>
      <stop offset="100%" style="stop-color:#1E40AF"/>
    </linearGradient>
  </defs>

  <!-- Background -->
  <rect width="800" height="400" fill="#F8FAFC"/>
  
  <!-- Header -->
  <rect x="40" y="30" width="720" height="60" fill="url(#headerGrad1)" rx="8"/>
  
  <!-- Logo -->
  <rect x="60" y="45" width="120" height="30" fill="#FFFFFF" rx="4"/>
  
  <!-- Navigation Items -->
  <rect x="420" y="52" width="60" height="16" fill="#93C5FD" rx="8"/>
  <rect x="500" y="52" width="60" height="16" fill="#93C5FD" rx="8"/>
  <rect x="580" y="52" width="60" height="16" fill="#93C5FD" rx="8"/>
  <rect x="660" y="52" width="60" height="16" fill="#93C5FD" rx="8"/>

  <!-- Hero Section -->
  <rect x="40" y="110" width="720" height="160" fill="url(#contentGrad1)" rx="8"/>
  <rect x="80" y="140" width="320" height="40" fill="#FFFFFF" rx="4"/>
  <rect x="80" y="190" width="240" height="20" fill="#BFDBFE" rx="2"/>
  <rect x="80" y="220" width="160" height="30" fill="#60A5FA" rx="15"/>
  
  <!-- Decorative Elements in Hero -->
  <circle cx="600" cy="180" r="40" fill="#60A5FA" opacity="0.3"/>
  <circle cx="650" cy="200" r="30" fill="#60A5FA" opacity="0.2"/>
  <circle cx="680" cy="160" r="20" fill="#60A5FA" opacity="0.1"/>

  <!-- Three Column Layout -->
  <rect x="40" y="290" width="230" height="90" fill="#3B82F6" rx="8"/>
  <rect x="60" y="310" width="190" height="16" fill="#FFFFFF" rx="2"/>
  <rect x="60" y="334" width="190" height="30" fill="#93C5FD" rx="4"/>
  
  <rect x="285" y="290" width="230" height="90" fill="#3B82F6" rx="8"/>
  <rect x="305" y="310" width="190" height="16" fill="#FFFFFF" rx="2"/>
  <rect x="305" y="334" width="190" height="30" fill="#93C5FD" rx="4"/>
  
  <rect x="530" y="290" width="230" height="90" fill="#3B82F6" rx="8"/>
  <rect x="550" y="310" width="190" height="16" fill="#FFFFFF" rx="2"/>
  <rect x="550" y="334" width="190" height="30" fill="#93C5FD" rx="4"/>
</svg>