<svg viewBox="0 0 800 400" xmlns="http://www.w3.org/2000/svg">
  <defs>
    <linearGradient id="headerGrad3" x1="0%" y1="0%" x2="100%" y2="0%">
      <stop offset="0%" style="stop-color:#1E40AF"/>
      <stop offset="100%" style="stop-color:#3B82F6"/>
    </linearGradient>
    <linearGradient id="contentGrad3" x1="0%" y1="0%" x2="0%" y2="100%">
      <stop offset="0%" style="stop-color:#2563EB"/>
      <stop offset="100%" style="stop-color:#1E40AF"/>
    </linearGradient>
  </defs>

  <!-- Clean Background -->
  <rect width="800" height="400" fill="#F8FAFC"/>
  
  <!-- Minimal Header -->
  <rect x="40" y="30" width="720" height="40" fill="url(#headerGrad3)" rx="4"/>
  <rect x="60" y="42" width="100" height="16" fill="#FFFFFF" rx="2"/>
  <rect x="660" y="42" width="80" height="16" fill="#93C5FD" rx="2"/>
  
  <!-- Main Content Area -->
  <rect x="40" y="90" width="720" height="180" fill="url(#contentGrad3)" rx="4"/>
  <rect x="60" y="120" width="400" height="40" fill="#FFFFFF" rx="4"/>
  <rect x="60" y="170" width="680" height="20" fill="#93C5FD" rx="2"/>
  <rect x="60" y="200" width="680" height="20" fill="#93C5FD" rx="2"/>
  <rect x="60" y="230" width="400" height="20" fill="#93C5FD" rx="2"/>
  
  <!-- Subtle Divider -->
  <line x1="40" y1="290" x2="760" y2="290" stroke="#60A5FA" strokeWidth="1"/>
  
  <!-- Bottom Content Blocks -->
  <rect x="40" y="310" width="720" height="35" fill="#3B82F6" rx="4"/>
  <rect x="60" y="322" width="680" height="12" fill="#93C5FD" rx="2"/>
  
  <rect x="40" y="355" width="720" height="25" fill="#3B82F6" rx="4"/>
  <rect x="60" y="362" width="400" height="12" fill="#93C5FD" rx="2"/>
  
  <!-- Minimal Decorative Elements -->
  <circle cx="750" cy="120" r="4" fill="#60A5FA"/>
  <circle cx="750" cy="135" r="4" fill="#60A5FA"/>
  <circle cx="750" cy="150" r="4" fill="#60A5FA"/>
</svg>